<?xml version="1.0" encoding="UTF-8" standalone="no"?>
<!-- Created with Inkscape (http://www.inkscape.org/) -->

<svg
   width="148.84608mm"
   height="148.86455mm"
   viewBox="0 0 148.84608 148.86455"
   version="1.1"
   id="svg99"
   inkscape:version="1.1.1 (3bf5ae0d25, 2021-09-20)"
   sodipodi:docname="logo.svg"
   xmlns:inkscape="http://www.inkscape.org/namespaces/inkscape"
   xmlns:sodipodi="http://sodipodi.sourceforge.net/DTD/sodipodi-0.dtd"
   xmlns="http://www.w3.org/2000/svg"
   xmlns:svg="http://www.w3.org/2000/svg">
  <sodipodi:namedview
     id="namedview101"
     pagecolor="#ffffff"
     bordercolor="#666666"
     borderopacity="1.0"
     inkscape:pageshadow="2"
     inkscape:pageopacity="0.0"
     inkscape:pagecheckerboard="0"
     inkscape:document-units="mm"
     showgrid="false"
     inkscape:zoom="2"
     inkscape:cx="186"
     inkscape:cy="266.75"
     inkscape:window-width="3840"
     inkscape:window-height="1537"
     inkscape:window-x="-8"
     inkscape:window-y="-8"
     inkscape:window-maximized="1"
     inkscape:current-layer="g195" />
  <defs
     id="defs96" />
  <g
     inkscape:label="Layer 1"
     inkscape:groupmode="layer"
     id="layer1"
     transform="translate(-23.729716,-69.889162)">
    <g
       id="g195"
       transform="translate(-2.2347627,-2.9051918)"
       style="fill:#000000">
      <g
         id="g8147">
        <path
           style="fill:#000000;fill-opacity:1;stroke-width:0.0508"
           d="m 149.20399,91.088751 c -0.0632,-0.08057 -0.0614,-0.08237 0.0192,-0.01918 0.0846,0.06637 0.11153,0.108082 0.0697,0.108082 -0.0105,0 -0.0505,-0.04 -0.0889,-0.0889 z m -0.78252,-0.63885 c -0.55187,-0.46668 -1.16518,-1.030859 -0.9128,-0.839673 0.18103,0.137129 1.5494,1.324838 1.5494,1.344833 0,0.03276 -0.008,0.02647 -0.6366,-0.50516 z m -1.17163,-1.01215 -0.0968,-0.1143 0.1143,0.09677 c 0.0629,0.05322 0.1143,0.104659 0.1143,0.1143 0,0.04065 -0.0409,0.01064 -0.13183,-0.09677 z m -0.28105,-0.2286 c -0.0632,-0.08057 -0.0614,-0.08237 0.0192,-0.01918 0.0489,0.03835 0.0889,0.07835 0.0889,0.0889 0,0.04181 -0.0417,0.0149 -0.10808,-0.06972 z"
           id="path203" />
        <path
           style="fill:#fffb00;fill-opacity:1;stroke-width:0.0508"
           d="m 154.75856,168.10166 c -7.15583,-5.91636 -13.01175,-10.77125 -13.01315,-10.78865 -0.001,-0.0174 0.23896,-0.54024 0.53413,-1.16187 0.80729,-1.70019 1.60944,-3.53558 1.99832,-4.57229 0.1281,-0.34152 0.20307,-0.45453 -0.97743,1.4732 -0.78563,1.28292 -2.16839,3.43024 -2.35751,3.64735 -6.89772,-1.09755 -13.52516,-2.29392 -13.33283,-11.05735 -0.0197,-0.018 0.17175,-0.29543 0.42539,-0.61662 0.46747,-0.59195 1.55392,-2.03774 1.98491,-2.64138 0.18777,-0.26298 -0.0227,-0.0748 -1.03397,0.92425 -14.04032,14.6231 -10.09429,-2.29988 -14.22594,-8.29745 l 0.54775,-0.4155 c 1.77504,-1.34648 4.05554,-3.23008 5.75792,-4.75582 0.81762,-0.73279 2.79448,-2.64204 2.51572,-2.42968 -1.13563,0.86509 -4.26436,2.94362 -6.1976,4.11727 -1.41923,0.8616 -3.91439,2.28215 -4.01604,2.28641 -0.0384,0.002 -23.927609,-9.99486 -17.210682,-14.18862 0.02738,-0.0171 0.63278,-0.37153 1.458874,-0.77702 5.123998,-2.51508 9.625018,-5.21087 14.043598,-8.41112 1.52915,-1.10751 3.61927,-2.77069 4.50505,-3.58482 l 0.254,-0.23346 -0.5588,0.33877 c -0.30734,0.18632 -0.68114,0.41665 -0.83068,0.51185 -0.14953,0.0952 -0.83533,0.49968 -1.524,0.89883 -5.13996,2.97914 -10.69874,5.38915 -16.929841,7.33996 -1.146755,0.35902 -3.695592,1.1018 -3.837313,1.11536 -0.04208,0.004 -0.490126,-0.43286 -1.097974,-0.93423 l -1.105169,-0.91158 0.191084,-0.0552 c 0.22668,-0.0655 0.190693,0.077 0.447274,-1.77149 0.933536,-6.72556 3.119826,-13.626878 6.252815,-19.737879 0.293644,-0.57277 0.492298,-0.991956 0.441452,-0.931519 -0.484627,0.57599 -1.91194,2.488097 -2.667188,3.573119 -3.114736,4.474739 -5.72287,9.735449 -7.328962,14.782799 -0.244496,0.76835 -0.472382,1.41863 -0.477419,1.45491 -0.678701,4.88838 -15.168857,-12.27047 -15.193226,-12.385978 -0.02155,-0.102154 1.315834,-3.219083 1.968375,-4.601031 0.306741,-0.649605 0.549671,-1.1811 0.539852,-1.1811 -0.05337,0 -1.884396,2.589505 -2.595007,3.669954 l -0.902677,1.350278 -1.743094,-1.595169 c -0.957247,-0.876012 -1.823862,-1.52113 -1.831624,-1.5418 -0.0176,-0.04682 1.729643,-1.374028 2.776637,-2.109135 7.520097,-5.279958 16.029275,-8.797426 25.006326,-10.336951 3.157144,-0.541436 6.067429,-0.813394 9.645359,-0.901324 l 1.5494,-0.03807 -1.3462,-0.109876 c -3.57736,-0.291983 -6.56284,-0.29117 -10.287003,0.0028 -10.514417,0.829966 -20.856221,4.289902 -29.61757,9.908804 -0.634482,0.406908 -1.17152,0.7331 -1.193414,0.724865 -0.07824,-0.02941 -7.466818,-6.158931 -7.466818,-6.194415 0,-0.07146 2.085345,-1.509704 3.549472,-2.448041 9.259398,-5.934217 19.718565,-9.722515 30.664329,-11.106571 6.321126,-0.799287 12.426924,-0.806618 18.719804,-0.02247 12.21345,1.521907 23.87,6.062802 33.8836,13.199602 1.64375,1.171519 3.89369,2.926821 4.2418,3.309264 0.0559,0.06139 0.62737,0.54291 1.26998,1.070041 0.64261,0.527131 1.38556,1.163411 1.651,1.413952 3.45449,3.260593 5.69674,5.684774 8.20088,8.866271 9.10305,11.56538 14.54713,25.50262 15.67611,40.132 0.24485,3.17285 0.30439,5.6404 0.20224,8.382 -0.32169,8.63406 -2.03922,16.94031 -5.12339,24.77753 -0.50578,1.28525 -1.76989,4.2225 -1.85847,4.31828 0,0 -5.86662,-4.82784 -13.02246,-10.7442 z"
           id="path201"
           sodipodi:nodetypes="scsssccssccsssscscsscsscssscssscssssssscssssscsssssssssssssssscss" />
        <path
           style="fill:#fffb00;fill-opacity:1;stroke-width:0.0508"
           d="m 115.66532,215.11362 c -3.10843,-2.57262 -4.64267,-3.87325 -4.5974,-3.89737 0.0374,-0.0199 0.36513,-0.0875 0.72835,-0.15029 1.5536,-0.26839 3.99524,-0.82735 5.7658,-1.31996 8.28757,-2.30578 16.05063,-6.25901 22.8346,-11.62817 2.06261,-1.63246 3.50775,-2.9275 5.61741,-5.03396 2.13409,-2.13087 3.66467,-3.84983 5.33874,-5.99583 0.79871,-1.02387 2.31099,-3.0988 2.25851,-3.0988 -0.0131,0 -0.30226,0.32576 -0.64249,0.7239 -1.059,1.23922 -3.06848,3.34597 -4.37682,4.58869 -10.20448,9.69256 -23.28816,15.59062 -37.22755,16.78202 -1.98991,0.17008 -3.79063,0.25739 -5.30823,0.25739 h -0.99415 l -2.15839,-1.78548 c -1.18712,-0.98201 -2.35979,-1.63808 -2.35227,-1.64371 0.008,-0.006 0.79274,-0.54714 1.49124,-1.01755 2.09025,-1.40774 5.89928,-4.18931 7.40588,-5.40821 l 0.29388,-0.23777 0.89992,0.21906 c 3.0115,0.73304 6.48675,1.31388 9.51052,1.58955 3.85753,0.35167 8.01071,0.35335 11.83959,0.005 1.84813,-0.16824 4.99407,-0.58986 4.94872,-0.66323 -0.0114,-0.0185 -0.48446,-0.0491 -1.05123,-0.0682 -1.53469,-0.0515 -4.07261,-0.26326 -5.90728,-0.49287 -4.14009,-0.51815 -7.93006,-1.31927 -11.8872,-2.51271 -1.45507,-0.43883 -4.15974,-1.34672 -4.2344,-1.42137 -0.0177,-0.0177 0.0602,-0.11616 0.17315,-0.21877 0.11294,-0.10262 0.77508,-0.70093 1.47143,-1.32958 2.96517,-2.67692 6.80239,-6.51718 9.132,-9.13925 l 0.24299,-0.27348 1.10322,0.31123 c 6.95876,1.96322 14.07474,2.57937 21.24541,1.8396 0.82423,-0.085 1.54241,-0.15467 1.59597,-0.15475 0.0536,0 0.0827,-0.0148 0.0648,-0.0327 -0.0179,-0.0179 -0.54177,-0.0744 -1.16416,-0.12552 -5.57269,-0.45788 -11.10633,-1.65956 -16.25005,-3.52887 -1.44049,-0.52349 -3.66559,-1.41526 -3.79391,-1.52052 -0.008,-0.007 0.54054,-0.70649 1.2192,-1.55521 4.83237,-6.04333 8.70441,-12.01323 12.09376,-18.4472 l 0.77547,-1.47207 c 0,0 18.28221,13.50379 26.24761,21.13911 0.0297,0.12419 -2.17089,4.32494 -3.12222,5.97461 -8.4167,14.59518 -21.48493,25.89327 -37.14829,32.11639 -1.88582,0.74925 -4.7649,1.74076 -6.3246,2.1781 -0.54483,0.15277 -1.01346,0.28503 -1.0414,0.2939 -0.0279,0.009 -2.15021,-1.72138 -4.71615,-3.84502 z m -31.558249,-26.1042 c -4.831863,-3.99566 -8.806171,-7.28481 -8.831799,-7.30923 -0.02783,-0.0265 -0.0176,-0.0543 0.0254,-0.069 0.56548,-0.19342 3.049316,-1.11674 3.988933,-1.48282 0.673496,-0.2624 1.252667,-0.47708 1.287048,-0.47708 0.03438,0 0.454889,0.37452 0.934461,0.83228 3.567182,3.40488 7.747123,6.53686 12.124153,9.08448 1.14303,0.6653 3.172551,1.76723 3.254842,1.76723 0.08458,0 5.994881,-3.40139 6.132151,-3.52907 0.008,-0.007 -0.41499,-0.2725 -0.9398,-0.58921 -4.217123,-2.54488 -8.132447,-5.48027 -11.698394,-8.77051 -1.305301,-1.20438 -2.265355,-2.1318 -2.2352,-2.15922 0.01397,-0.0127 0.85979,-0.44684 1.8796,-0.96475 3.854872,-1.95771 8.053686,-4.36741 11.525324,-6.61437 l 0.52712,-0.34117 0.13328,0.12047 c 0.0733,0.0662 0.45332,0.41818 0.84448,0.78205 3.29088,3.06135 7.0152,5.77493 10.9474,7.9764 1.08834,0.60932 2.46084,1.33372 2.77805,1.46626 l 0.16694,0.0697 1.09626,-0.81249 c 1.04472,-0.77428 2.94316,-2.24467 3.13616,-2.42903 0.0863,-0.0825 0.0503,-0.11137 -0.73378,-0.58824 -3.14546,-1.91297 -6.3211,-4.27139 -9.16143,-6.80383 -1.02276,-0.91189 -3.68431,-3.51887 -3.68061,-3.60515 0.001,-0.0306 0.40707,-0.35842 0.9017,-0.72842 6.6176,-4.95038 13.27425,-11.2393 18.24953,-17.24137 0.42522,-0.51298 0.78877,-0.9389 0.80789,-0.94647 0.0325,-0.0129 12.99198,10.6778 13.25542,10.93478 l 0.12072,0.11776 -0.50034,0.72902 c -1.68184,2.45055 -4.57552,6.10067 -6.92081,8.73002 -3.00035,3.36374 -6.97832,7.27204 -10.3717,10.19004 -0.68779,0.59144 -3.81326,3.16181 -4.572,3.76 -3.4299,2.70409 -8.61692,6.32911 -12.7508,8.91107 -3.5316,2.20578 -8.973539,5.27141 -12.423799,6.99875 l -0.511195,0.25592 z M 56.783669,166.40684 c -5.104287,-4.22203 -9.269181,-7.68775 -9.255318,-7.70161 0.01386,-0.0139 0.855253,-0.0785 1.869755,-0.14355 4.772096,-0.30618 11.239333,-1.10473 15.42344,-1.90442 0.287802,-0.055 0.566176,-0.10001 0.618607,-0.10001 0.0725,0 0.133979,0.10038 0.256692,0.4191 0.912622,2.37028 2.604724,5.91129 4.011478,8.39465 0.877682,1.5494 2.112655,3.56837 2.778283,4.54202 0.229118,0.33516 0.25402,0.35569 0.396859,0.32725 0.79274,-0.15783 7.858796,-2.16091 8.063231,-2.28575 0.02025,-0.0124 -0.08427,-0.18724 -0.232278,-0.38858 -1.276188,-1.73613 -3.34577,-5.04891 -4.671761,-7.47809 -1.050676,-1.92482 -2.625792,-5.10628 -2.625792,-5.30365 0,-0.0227 0.234315,-0.10367 0.520701,-0.17992 4.546778,-1.21061 10.633385,-3.24487 14.709877,-4.9163 0.345242,-0.14155 0.642686,-0.23634 0.663753,-0.21152 0.02099,0.0247 0.08042,0.14786 0.132044,0.27359 0.05162,0.12573 0.380685,0.85725 0.731241,1.6256 0.867024,1.90034 2.169536,4.33853 3.297276,6.1722 1.150858,1.87126 2.984627,4.5466 3.116397,4.5466 0.08059,0 3.180446,-1.44397 4.785096,-2.22899 1.13553,-0.55551 1.55498,-0.78375 1.52647,-0.83061 -0.0216,-0.0355 -0.19072,-0.27034 -0.37579,-0.5218 -2.29873,-3.12334 -5.124718,-7.99107 -6.605635,-11.3781 l -0.243845,-0.5577 2.066508,-1.04631 c 1.136579,-0.57547 2.352262,-1.2019 2.701512,-1.39207 4.95057,-2.69558 9.04275,-5.27427 13.32041,-8.39384 l 1.0014,-0.73029 c 4.03746,4.72592 15.38409,7.63317 9.19081,12.91043 -6.8363,5.8087 -14.8831,10.87505 -24.107425,15.17828 -9.2094,4.29627 -19.656731,7.81356 -30.5202,10.27521 -0.91474,0.20728 -3.210179,0.70459 -3.252191,0.70459 -0.0061,0 -4.187322,-3.45439 -9.291605,-7.67641 z M 26.134619,141.4616 c -0.129011,-0.12109 0.466965,-4.74416 0.932659,-7.35795 2.990678,-16.78579 11.708644,-32.0709 24.661375,-43.238546 1.3237,-1.141277 3.515822,-2.898673 4.479864,-3.591453 8.146137,-5.716731 7.466783,5.450586 7.889545,5.958748 -0.04919,0.0294 -0.698647,0.486283 -1.443223,1.015299 -14.868551,10.564012 -24.633312,26.825422 -26.876671,44.758152 -0.355478,2.84157 -0.591088,8.81005 -0.506674,10.46957 -1.076908,0.69331 -7.190085,-6.38935 -9.136875,-8.01382 z m 19.323347,6.56212 c -0.791123,-0.0275 -1.173592,-0.0592 -1.198529,-0.0996 -0.05091,-0.0824 -0.103094,-1.84369 -0.10318,-3.48267 0,-4.10937 0.476854,-8.65219 1.349731,-12.8524 0.179999,-0.86614 0.357169,-1.6891 0.393715,-1.8288 l 0.06644,-0.254 3.705063,0.0171 c 3.206796,0.0148 4.005651,0.003 5.940257,-0.0904 2.103786,-0.10117 5.329175,-0.32255 5.708956,-0.39184 l 0.171759,-0.0313 -0.03119,0.3244 c -0.01716,0.17843 -0.05768,1.0445 -0.09006,1.92461 -0.149774,4.07163 0.121351,8.4834 0.771109,12.5476 0.213512,1.33549 0.175483,1.2192 0.398693,1.2192 0.313197,0 2.948834,-0.24303 4.983333,-0.4595 1.874226,-0.19942 2.1844,-0.23926 2.1844,-0.28057 0,-0.0114 -0.04537,-0.18679 -0.100833,-0.38966 -0.588985,-2.15464 -1.405814,-6.55973 -1.749821,-9.43667 -0.2391,-1.9996 -0.500802,-5.19394 -0.475564,-5.8048 l 0.01482,-0.35877 1.27,-0.21369 c 5.436063,-0.91468 10.745552,-2.21461 15.586086,-3.81594 0.553563,-0.18313 1.013531,-0.32487 1.022152,-0.31498 0.0086,0.01 -0.01724,0.55519 -0.05745,1.21178 -0.05343,0.87232 -0.06648,1.83675 -0.04847,3.5814 0.02206,2.13697 0.04135,2.57423 0.183749,4.1656 0.232212,2.59491 0.716615,5.73916 1.203579,7.81237 0.106314,0.45261 0.143332,0.54376 0.212735,0.52375 0.04621,-0.0133 0.758388,-0.19813 1.582618,-0.41067 0.82423,-0.21254 2.234342,-0.59354 3.133578,-0.84668 1.618006,-0.45545 1.634516,-0.46145 1.590101,-0.57827 -0.08171,-0.21491 -0.544703,-1.96371 -0.780069,-2.94645 -1.050854,-4.38768 -1.6027,-8.70216 -1.728166,-13.51139 l -0.0252,-0.96574 0.441573,-0.17296 c 0.715432,-0.28021 2.829068,-1.18948 3.857265,-1.65935 0.524215,-0.23957 1.023275,-0.46656 1.10902,-0.50443 l 0.155905,-0.0689 c 4.329549,5.84494 26.857969,9.74148 16.414619,14.65682 -11.53783,5.39933 -29.073766,11.05875 -43.955231,12.76714 -4.082217,0.46864 -7.77146,0.75083 -12.700001,0.97141 -1.491117,0.0667 -8.879261,0.10023 -10.407498,0.0472 z m 10.864699,-27.26367 c -2.388388,-0.0796 -5.328169,-0.23521 -6.832601,-0.36157 -0.383291,-0.0322 -0.429971,-0.0469 -0.415508,-0.13108 0.009,-0.0522 0.257032,-0.62285 0.551276,-1.2682 3.388091,-7.43097 8.117546,-14.03254 14.037814,-19.594581 1.700378,-1.597497 4.642564,-4.063435 4.744794,-3.984334 0.201143,0.155636 2.622801,3.417081 2.733159,3.519179 0.136053,0.125872 0.136612,0.129037 0.04573,0.259507 -0.05061,0.07264 -0.480527,0.79502 -0.95538,1.605279 -2.304842,3.93284 -4.249364,8.23273 -5.653614,12.50174 -0.485053,1.47459 -1.145758,3.72475 -1.362938,4.64177 l -0.0966,0.40789 0.615138,5.1e-4 c 0.722066,5.1e-4 3.341949,-0.0925 3.723386,-0.13195 l 0.263454,-0.0272 0.03233,-0.28885 c 0.617149,-5.51281 2.061093,-11.60738 3.967739,-16.7469 l 0.497774,-1.341793 0.256225,0.216093 c 1.757437,3.03028 15.825574,9.60239 14.75222,12.8716 -0.304912,1.15769 -0.755122,2.92515 -0.735503,2.94477 0.01846,0.0185 1.365494,-0.25424 3.282909,-0.71602 l 1.224784,-0.29497 c 1.066773,0.26902 1.070463,1.19316 1.764776,1.97631 l -1.20268,0.30904 c -8.07339,2.07451 -17.020581,3.29204 -26.577281,3.61662 -1.295873,0.044 -7.490085,0.0565 -8.6614,0.0174 z"
           id="path199"
           sodipodi:nodetypes="cscsssssscsscsssscsscscsssssscsscscscssccssscccsscsscssccsssscccsccsccsccssscsssssscssscssssssscssssssssssssscscsccsssscssccsscccccsscscccsssssscsscsscsssssssssscsscccsccccscssssssssccccsscccssccsscc" />
        <path
           style="fill:#fffb00;fill-opacity:1;stroke-width:0.0508"
           d="m 97.419867,221.65018 c -1.298596,-0.0418 -4.778142,-0.33933 -6.477001,-0.55387 -14.541495,-1.83642 -28.189302,-7.9297 -39.29336,-17.54312 C 38.723054,192.362 30.044544,177.12328 27.069407,160.39265 c -0.867156,-4.87645 -1.219834,-10.5801 -1.072361,-15.08078 0.05585,-1.70446 0.132804,-4.12094 0.186856,-4.17499 1.400113,2.53424 8.944789,4.65899 9.068391,7.73915 0.05114,1.27454 0.19143,3.41457 0.297074,4.53162 1.252525,13.24348 6.600129,25.83071 15.280102,35.96639 0.90329,1.05478 0.945078,1.1007 2.445197,2.6866 3.509473,3.71016 7.861357,7.26885 12.319001,10.0737 6.083184,3.82767 12.450151,6.50756 19.530808,8.22062 3.961735,0.95848 8.493831,1.5556 13.133594,1.7304 3.493441,0.13161 7.732671,-0.12237 11.546241,-0.69176 10.19035,-1.90658 8.75898,6.05585 10.4849,7.57904 -0.0589,0.0589 -1.4646,0.42397 -3.01909,0.78407 -3.60751,0.83568 -7.47829,1.42359 -11.36665,1.72642 -1.90215,0.14813 -2.22029,0.1591 -4.9784,0.17163 -1.620521,0.007 -3.197861,0.005 -3.505201,-0.005 z m 6.527803,-15.34499 c -0.92274,-0.0286 -3.01138,-0.16756 -4.05521,-0.26978 -1.33607,-0.13084 -3.425637,-0.40227 -3.477326,-0.4517 -0.02174,-0.0208 0.161143,-0.15979 0.4064,-0.30888 0.631886,-0.3841 2.402155,-1.50596 3.228436,-2.04591 0.63626,-0.41578 0.70766,-0.45034 0.7874,-0.38116 1.05313,-0.8465 6.01015,3.55521 3.89629,3.4829 -0.16687,-0.006 -0.52056,-0.0173 -0.78599,-0.0255 z m -22.529804,-5.01735 c -0.08382,-0.0404 -0.74676,-0.35094 -1.4732,-0.69017 -6.957259,-3.24886 -13.318191,-7.80958 -18.683591,-13.39594 -0.94871,-0.98778 -1.141207,-1.21193 -1.0668,-1.24221 0.04994,-0.0203 0.54799,-0.14188 1.10679,-0.27011 4.225275,-0.9696 9.037031,-2.34545 13.106401,-3.74758 4.558291,-1.73514 8.724125,0.17669 12.14787,2.93769 5.124289,4.13237 8.299142,10.43353 6.33694,11.3947 -3.480136,1.70298 -10.702245,5.00674 -11.16961,5.06728 -0.08382,0.0109 -0.22098,-0.0133 -0.3048,-0.0537 z M 52.570424,175.69615 c -0.653573,-1.11367 -1.207186,-2.15046 -1.986966,-3.7211 -1.614602,-3.25217 -2.824414,-6.31666 -3.866312,-9.79351 -0.312481,-1.04276 -0.947171,-3.39633 -0.921751,-3.41807 0.0064,-0.005 0.38893,-0.0184 0.850032,-0.0286 l 0.838362,-0.0186 c 2.094036,-0.12318 19.745159,15.07077 18.647771,15.35438 -0.194991,0.0849 -3.831955,0.75748 -6.049695,1.12509 -2.526701,0.41883 -6.54424,0.97 -7.07224,0.97025 -0.15242,0 -0.182026,-0.0316 -0.439201,-0.46982 z"
           id="path197"
           sodipodi:nodetypes="ccssscccsssssccsscccsssssccsscsssscscsccsssccccscss" />
      </g>
    </g>
  </g>
</svg>
