<?xml version="1.0" standalone="no"?>
<!DOCTYPE svg PUBLIC "-//W3C//DTD SVG 20010904//EN"
 "http://www.w3.org/TR/2001/REC-SVG-20010904/DTD/svg10.dtd">
<svg version="1.0" xmlns="http://www.w3.org/2000/svg"
 width="700.000000pt" height="700.000000pt" viewBox="0 0 700.000000 700.000000"
 preserveAspectRatio="xMidYMid meet">
<metadata>
Created by potrace 1.14, written by Peter Selinger 2001-2017
</metadata>
<g transform="translate(0.000000,700.000000) scale(0.100000,-0.100000)"
fill="#000000" stroke="none">
<path d="M3275 6994 c-27 -2 -111 -11 -185 -20 -1262 -146 -2346 -968 -2830
-2145 -321 -780 -346 -1675 -70 -2473 365 -1054 1210 -1872 2275 -2201 835
-258 1743 -193 2533 181 216 102 456 251 662 410 150 115 480 446 594 594 406
527 639 1095 723 1760 21 167 24 593 5 755 -76 659 -301 1231 -682 1740 -571
762 -1404 1249 -2355 1376 -145 19 -546 33 -670 23z m410 -454 c-3 -5 -36 -10
-73 -10 -190 0 -525 -62 -759 -139 -453 -151 -841 -395 -1178 -742 -182 -188
-329 -385 -458 -615 -61 -110 -133 -262 -126 -269 13 -12 470 -27 674 -21 713
19 1322 133 1865 348 148 58 391 177 509 248 46 27 85 49 87 48 5 -6 -191
-156 -313 -239 -219 -148 -498 -301 -760 -414 l-113 -49 0 -77 c0 -159 37
-431 87 -632 14 -59 23 -110 20 -114 -12 -11 -282 -81 -289 -74 -3 3 -13 42
-22 86 -32 161 -48 332 -49 523 -1 105 -4 192 -7 192 -3 0 -57 -16 -120 -35
-161 -50 -360 -99 -525 -130 -77 -14 -150 -28 -162 -31 -20 -4 -23 -10 -23
-57 0 -126 49 -466 89 -625 l19 -72 -22 -5 c-23 -5 -320 -33 -323 -31 -1 1 -9
47 -18 103 -22 151 -37 414 -29 538 l6 110 -83 -7 c-46 -3 -211 -10 -367 -14
l-282 -7 -10 -36 c-42 -157 -72 -448 -68 -661 l3 -165 330 1 c784 2 1382 103
2155 361 497 166 816 315 1135 529 l80 54 -79 -75 c-116 -112 -318 -271 -501
-394 -199 -135 -313 -203 -532 -320 -95 -51 -173 -95 -173 -97 0 -2 25 -55 56
-117 65 -129 154 -279 230 -388 l53 -76 -147 -71 c-80 -39 -150 -68 -154 -66
-32 20 -225 342 -294 490 -24 52 -47 94 -52 94 -5 0 -68 -22 -140 -50 -124
-46 -401 -137 -540 -177 l-63 -18 56 -115 c66 -134 142 -265 233 -403 36 -54
63 -99 61 -102 -6 -5 -358 -105 -373 -105 -26 0 -264 431 -321 583 -10 26 -21
50 -25 52 -4 3 -79 -6 -166 -20 -209 -32 -371 -51 -585 -66 l-176 -13 14 -55
c50 -197 154 -463 257 -654 46 -86 61 -107 79 -107 46 0 380 53 547 86 1231
247 2254 734 2984 1424 l70 65 -49 -65 c-201 -268 -592 -654 -914 -900 l-84
-65 116 -112 c115 -111 320 -271 450 -353 37 -23 67 -46 67 -50 0 -11 -179
-150 -193 -150 -18 0 -196 100 -300 169 -110 73 -222 160 -330 255 -64 56 -70
59 -90 46 -99 -64 -351 -209 -475 -275 -84 -44 -152 -83 -152 -87 0 -4 51 -53
113 -109 132 -119 331 -271 475 -362 l103 -66 -38 -24 c-21 -13 -84 -50 -141
-82 l-104 -58 -36 17 c-156 72 -438 268 -625 434 -58 50 -109 92 -114 92 -5 0
-77 -25 -159 -56 -195 -72 -398 -135 -613 -190 -96 -24 -176 -46 -179 -48 -7
-8 200 -206 306 -294 57 -47 165 -126 240 -176 143 -96 425 -246 461 -246 51
0 621 273 874 419 538 310 950 616 1321 980 277 273 440 469 628 751 60 91
112 167 114 170 3 2 -18 -47 -46 -110 -138 -311 -364 -682 -608 -998 -57 -75
-106 -141 -109 -147 -4 -13 47 -35 227 -97 193 -66 460 -124 665 -144 l80 -8
-55 -8 c-30 -5 -154 -10 -275 -10 -251 -2 -425 18 -652 76 l-128 32 -190 -191
c-104 -106 -221 -220 -258 -255 -38 -34 -65 -66 -60 -70 13 -12 216 -75 352
-110 146 -37 386 -75 560 -89 68 -6 125 -12 128 -14 10 -10 -222 -30 -405 -34
-266 -7 -524 18 -756 72 -34 8 -68 15 -76 15 -8 0 -67 -39 -130 -86 -137 -103
-327 -234 -427 -295 -40 -24 -73 -47 -73 -50 0 -14 274 -38 430 -39 806 -1
1553 318 2120 907 116 120 116 112 1 -32 -433 -538 -1045 -922 -1702 -1069
-250 -55 -384 -70 -669 -70 -277 0 -392 10 -620 55 -594 119 -1182 444 -1601
887 -466 493 -753 1116 -825 1792 -19 185 -14 525 11 714 187 1404 1328 2503
2735 2634 137 13 493 14 485 2z m-345 -550 c-118 -234 -217 -546 -264 -830
l-22 -135 -97 -24 c-53 -13 -100 -22 -103 -18 -8 8 40 178 88 315 51 142 176
395 258 522 66 100 159 230 166 230 2 0 -9 -27 -26 -60z m-1116 -144 c-110
-254 -192 -538 -234 -801 -12 -77 -24 -150 -26 -162 -4 -22 -8 -23 -109 -23
-58 0 -105 3 -105 8 0 22 87 291 127 391 55 139 151 335 227 460 54 89 164
251 171 251 2 0 -21 -56 -51 -124z"/>
</g>
</svg>
