<svg xmlns="http://www.w3.org/2000/svg" xmlns:xlink="http://www.w3.org/1999/xlink" width="1200px" height="1200px" viewBox="0 0 1200 1200">
    <g id="kyIeQkFfL0e977hC241Tm">
<g style="">
		<g id="kyIeQkFfL0e977hC241Tm-child-0">
<path style="stroke: rgb(255,215,54); stroke-width: 6.564823; stroke-dasharray: none; stroke-linecap: round; stroke-dashoffset: 0; stroke-linejoin: miter; stroke-miterlimit: 10; fill: none; fill-rule: nonzero; opacity: 1;" d="M375.13351,600.00008c0,-124.19038 100.67619,-224.86657 224.86657,-224.86657c124.19038,0 224.86657,100.67619 224.86657,224.86657c0,124.19038 -100.67619,224.86657 -224.86657,224.86657c-124.19038,0 -224.86657,-100.67619 -224.86657,-224.86657z" stroke-linecap="round"/>
</g>
</g>
</g>
<g id="FMUTtz6BV0rEUsVbl8FCC">
<g style="">
		<g id="FMUTtz6BV0rEUsVbl8FCC-child-0">
<path style="stroke: rgb(255,215,54); stroke-width: 6.564823; stroke-dasharray: none; stroke-linecap: round; stroke-dashoffset: 0; stroke-linejoin: miter; stroke-miterlimit: 10; fill: none; fill-rule: nonzero; opacity: 1;" d="M460.00729,600.00007c0,-77.31588 62.6769,-139.99278 139.99278,-139.99278c77.31588,0 139.99278,62.6769 139.99278,139.99278c0,77.31588 -62.6769,139.99278 -139.99278,139.99278c-77.31588,0 -139.99278,-62.6769 -139.99278,-139.99278z" stroke-linecap="round"/>
</g>
</g>
</g>
<g id="0f62860b-75ce-4138-9399-8a33d23b0be2">
<g style="">
		<g id="Layer_1-2">
<path style="stroke: rgb(193,193,193); stroke-width: 0; stroke-dasharray: none; stroke-linecap: butt; stroke-dashoffset: 0; stroke-linejoin: miter; stroke-miterlimit: 4; fill: rgb(255,215,54); fill-rule: nonzero; opacity: 1;" transform="matrix(0.374379 0 0 0.374379 599.999915 599.999917) matrix(1 0 0 1 0 0)  translate(-258.827254, -255.84875)" d="M 409.94 427.25 L 270.94 493.19 C 263.26 496.84 254.35 496.84 246.69 493.19 L 21.24 386.24 C -7.06 372.80 -7.09 332.53 21.22 319.09 L 25.08 317.26 L 252.75 425.29 C 256.59 427.10 261.04 427.10 264.86 425.29 L 409.94 356.47 L 409.94 427.25 Z M 496.39 319.10 L 492.55 317.28 L 433.51 345.28 L 433.51 416.08 L 496.44 386.22 C 524.75 372.78 524.72 332.48 496.39 319.10 Z M 21.24 278.77 L 246.69 385.72 C 254.35 389.35 263.26 389.35 270.94 385.72 L 409.94 319.78 L 409.94 248.98 L 264.86 317.80 C 261.04 319.64 256.59 319.64 252.75 317.80 L 25.08 209.79 L 21.22 211.63 C -7.09 225.06 -7.06 265.34 21.24 278.77 Z M 496.39 211.63 L 492.55 209.79 L 433.51 237.78 L 433.51 308.61 L 496.39 278.77 C 524.69 265.33 524.69 225.06 496.39 211.62 Z M 21.24 171.28 L 246.69 278.23 C 254.35 281.88 263.26 281.88 270.94 278.23 L 391.37 221.10 L 235.59 147.22 L 263.07 134.16 L 418.85 208.07 L 496.39 171.28 C 524.69 157.84 524.69 117.57 496.39 104.13 L 293.24 7.74 C 271.44 -2.58 246.17 -2.58 224.39 7.74 L 21.22 104.13 C -7.09 117.57 -7.06 157.84 21.24 171.28 Z M 421.74 455.52 C 410.19 455.52 400.84 464.88 400.84 476.42 L 400.84 511.70 L 442.63 511.70 L 442.63 476.42 C 442.63 464.88 433.28 455.52 421.73 455.52 Z" stroke-linecap="round"/>
</g>
</g>
</g>
<g transform="matrix(1 0 0 1 0 0)" id="1e77c756-02d8-4840-a6c0-5ea3f79df131">

</g>
<g id="5DUqMnj6xDNuMgMTSJCEw">
<g style="">
		<g id="76094b97-3afc-4784-92a6-8ff6d1f49e6b">
<path style="stroke: rgb(136,136,136); stroke-width: 0; stroke-dasharray: none; stroke-linecap: butt; stroke-dashoffset: 0; stroke-linejoin: miter; stroke-miterlimit: 4; fill: rgb(255,215,54); fill-rule: nonzero; opacity: 1;" d="M414.39,605.9c-0.91,0.56 -1.59,1.34 -2.04,2.34c-0.45,0.98 -0.64,2.13 -0.57,3.43c0.13,2.25 0.97,4.01 2.53,5.28c1.55,1.27 3.56,1.83 6.02,1.69c2.63,-0.15 4.64,-0.97 6.04,-2.47c1.4,-1.51 2.03,-3.51 1.89,-6c-0.1,-1.71 -0.62,-3.13 -1.55,-4.26c-0.94,-1.13 -2.23,-1.92 -3.89,-2.36l0.5,8.81l-5.12,0.29l-0.86,-15.11l6.46,-0.37c1.77,0.42 3.43,1.2 4.99,2.34c1.56,1.16 2.86,2.65 3.88,4.49c1.03,1.85 1.61,3.96 1.75,6.35c0.16,2.82 -0.32,5.37 -1.42,7.64c-1.11,2.28 -2.73,4.09 -4.85,5.45c-2.12,1.36 -4.59,2.12 -7.42,2.28c-2.81,0.16 -5.36,-0.32 -7.64,-1.43c-2.27,-1.11 -4.09,-2.72 -5.45,-4.84c-1.36,-2.13 -2.12,-4.6 -2.28,-7.41c-0.19,-3.42 0.47,-6.34 1.99,-8.78c1.53,-2.44 3.73,-4.12 6.61,-5.04zM430.22,577.18l1.29,-9.03l5.32,0.76l-2.29,15.92l-28.28,-4.06l0.99,-6.89zM443.77,545.12c-0.9,2.53 -2.3,4.65 -4.22,6.35c-1.92,1.7 -4.16,2.79 -6.71,3.29c-2.55,0.5 -5.14,0.29 -7.77,-0.64c-2.64,-0.93 -4.79,-2.39 -6.45,-4.37c-1.66,-1.98 -2.71,-4.23 -3.14,-6.76c-0.44,-2.53 -0.21,-5.06 0.69,-7.59c0.89,-2.53 2.29,-4.65 4.21,-6.34c1.92,-1.7 4.15,-2.79 6.68,-3.27c2.52,-0.47 5.1,-0.25 7.74,0.68c2.63,0.93 4.79,2.38 6.47,4.35c1.68,1.97 2.74,4.22 3.18,6.73c0.44,2.51 0.21,5.03 -0.68,7.57zM437.79,543.01c0.75,-2.15 0.64,-4.12 -0.34,-5.92c-0.98,-1.8 -2.64,-3.11 -5,-3.94c-2.38,-0.84 -4.51,-0.86 -6.38,-0.06c-1.88,0.79 -3.19,2.25 -3.95,4.41c-0.77,2.17 -0.67,4.15 0.28,5.95c0.95,1.78 2.63,3.1 5.03,3.94c2.39,0.84 4.52,0.87 6.39,0.08c1.88,-0.8 3.2,-2.28 3.97,-4.46zM450.56,498.53c1.18,-1.21 2.58,-1.9 4.21,-2.07c1.62,-0.16 3.13,0.21 4.53,1.09c2.02,1.27 3.18,2.99 3.47,5.14c0.3,2.16 -0.35,4.5 -1.94,7.02l-7.1,11.27l-24.17,-15.23l6.85,-10.88c1.55,-2.46 3.33,-4.03 5.32,-4.71c2,-0.68 3.97,-0.41 5.9,0.8c1.42,0.9 2.37,2.02 2.84,3.35c0.47,1.34 0.5,2.75 0.09,4.22zM443.05,506.02l2.43,-3.86c0.61,-0.96 0.86,-1.84 0.76,-2.63c-0.1,-0.78 -0.56,-1.43 -1.39,-1.95c-0.83,-0.52 -1.62,-0.66 -2.38,-0.42c-0.76,0.24 -1.45,0.84 -2.06,1.81l-2.43,3.86zM455.42,507.75c0.62,-0.99 0.88,-1.89 0.78,-2.71c-0.11,-0.82 -0.59,-1.5 -1.44,-2.03c-0.86,-0.54 -1.7,-0.68 -2.53,-0.42c-0.84,0.25 -1.57,0.88 -2.19,1.86l-2.69,4.28l5.34,3.36zM481.96,476.03l-7.45,7.64l2.42,4.75l-5.09,5.21l-13.23,-27.35l5.62,-5.76l27.67,12.55l-5.13,5.27zM476.86,473.56l-9.96,-4.76l5.04,9.81zM503.53,458.02l7.53,-5.15l3.03,4.43l-13.27,9.09l-16.14,-23.58l5.75,-3.93zM537.76,414.75l5.2,16.28c0.52,1.63 1.32,2.75 2.41,3.37c1.08,0.62 2.39,0.69 3.94,0.19c1.55,-0.49 2.6,-1.31 3.14,-2.45c0.56,-1.14 0.57,-2.53 0.05,-4.16l-5.2,-16.28l6.63,-2.12l5.19,16.24c0.78,2.44 0.91,4.66 0.41,6.66c-0.49,2.02 -1.48,3.73 -2.96,5.14c-1.46,1.4 -3.27,2.45 -5.42,3.13c-2.14,0.69 -4.2,0.88 -6.16,0.59c-1.96,-0.3 -3.7,-1.14 -5.23,-2.52c-1.52,-1.38 -2.67,-3.28 -3.45,-5.71l-5.18,-16.25zM600.44,432.02l-6.94,0.6l-13.12,-16.54l1.53,17.55l-6.94,0.61l-2.48,-28.46l6.94,-0.61l13.13,16.62l-1.54,-17.63l6.94,-0.6zM623.1,404.94l-2.44,28.47l-6.94,-0.6l2.45,-28.46zM667.12,414.17l-17.12,25.02l-8.42,-2.22l-2.48,-30.21l7.15,1.89l1.34,22.66l12.4,-19.03zM686.2,428.66l-2.57,5.17l8.34,4.15l-2.4,4.82l-8.34,-4.15l-2.79,5.6l9.44,4.7l-2.49,4.99l-15.67,-7.79l12.73,-25.58l15.67,7.8l-2.48,4.98zM707.72,469.26l1.85,-12.18l-1.32,-1.01l-6.56,8.56l-5.53,-4.23l17.39,-22.67l9.27,7.11c1.79,1.37 3.07,2.85 3.85,4.44c0.78,1.59 1.07,3.16 0.86,4.73c-0.21,1.57 -0.83,3.02 -1.85,4.35c-1.16,1.51 -2.62,2.53 -4.38,3.06c-1.76,0.53 -3.65,0.41 -5.69,-0.37l-1.66,12.99zM711.25,452.17l3.42,2.62c1.01,0.77 1.96,1.11 2.85,1c0.88,-0.1 1.67,-0.61 2.36,-1.51c0.67,-0.86 0.93,-1.74 0.81,-2.62c-0.13,-0.88 -0.7,-1.71 -1.71,-2.49l-3.42,-2.62zM729.32,490.36c-1.38,-1.57 -2.36,-3.2 -2.95,-4.89c-0.58,-1.69 -0.69,-3.34 -0.35,-4.97c0.35,-1.62 1.21,-3.07 2.58,-4.35l4.89,5.57c-0.73,0.78 -1.09,1.59 -1.1,2.42c-0.01,0.84 0.32,1.64 0.98,2.39c0.68,0.78 1.4,1.23 2.15,1.37c0.75,0.13 1.44,-0.08 2.08,-0.63c0.53,-0.47 0.81,-1.03 0.84,-1.69c0.04,-0.66 -0.06,-1.35 -0.3,-2.07c-0.23,-0.72 -0.62,-1.68 -1.18,-2.88c-0.79,-1.77 -1.36,-3.28 -1.7,-4.53c-0.34,-1.25 -0.37,-2.56 -0.08,-3.93c0.28,-1.36 1.09,-2.64 2.43,-3.82c2,-1.75 4.2,-2.4 6.61,-1.95c2.4,0.46 4.62,1.85 6.66,4.17c2.08,2.37 3.19,4.77 3.33,7.21c0.13,2.44 -0.76,4.6 -2.69,6.47l-4.97,-5.66c0.66,-0.65 0.98,-1.38 0.96,-2.2c-0.01,-0.81 -0.34,-1.59 -0.98,-2.33c-0.56,-0.63 -1.17,-0.99 -1.85,-1.08c-0.68,-0.1 -1.33,0.13 -1.96,0.69c-0.7,0.61 -0.95,1.41 -0.76,2.41c0.18,0.99 0.66,2.37 1.43,4.16c0.75,1.79 1.29,3.31 1.62,4.55c0.33,1.24 0.37,2.54 0.1,3.89c-0.25,1.35 -1.02,2.59 -2.31,3.71c-1.22,1.08 -2.61,1.75 -4.15,2c-1.55,0.25 -3.14,0.04 -4.77,-0.62c-1.62,-0.66 -3.14,-1.8 -4.56,-3.41zM771.4,499.18l-24.18,15.21l-3.71,-5.89l24.19,-15.21zM788.24,533.74l-5.13,2.19l-2.97,-6.96l-21.15,9.05l-2.74,-6.4l21.15,-9.05l-2.98,-6.96l5.12,-2.19zM794.61,556.23l-27.71,6.97l-1.69,-6.75l27.7,-6.97zM793.13,581.22l-5.76,0.54l0.87,9.27l-5.36,0.51l-0.86,-9.28l-6.24,0.58l0.98,10.49l-5.55,0.52l-1.63,-17.42l28.44,-2.66l1.63,17.42l-5.54,0.52zM770.13,616.77c0.19,-2.08 0.69,-3.91 1.51,-5.5c0.83,-1.59 1.95,-2.82 3.36,-3.68c1.42,-0.87 3.06,-1.25 4.93,-1.13l-0.67,7.38c-1.06,0.01 -1.9,0.3 -2.5,0.88c-0.62,0.57 -0.97,1.36 -1.06,2.35c-0.09,1.03 0.07,1.86 0.49,2.5c0.42,0.64 1.05,0.99 1.89,1.07c0.7,0.06 1.3,-0.12 1.8,-0.55c0.51,-0.44 0.94,-0.98 1.3,-1.64c0.36,-0.66 0.78,-1.61 1.27,-2.85c0.74,-1.79 1.44,-3.23 2.11,-4.35c0.67,-1.11 1.6,-2.03 2.79,-2.77c1.18,-0.74 2.67,-1.03 4.44,-0.87c2.65,0.24 4.64,1.39 5.97,3.44c1.33,2.05 1.85,4.62 1.57,7.7c-0.28,3.14 -1.26,5.6 -2.93,7.38c-1.67,1.78 -3.86,2.62 -6.54,2.52l0.67,-7.5c0.93,0.03 1.68,-0.24 2.27,-0.82c0.58,-0.58 0.91,-1.35 1,-2.32c0.07,-0.83 -0.09,-1.53 -0.49,-2.09c-0.39,-0.55 -1.01,-0.86 -1.85,-0.94c-0.92,-0.08 -1.68,0.28 -2.27,1.1c-0.59,0.82 -1.26,2.13 -2.03,3.9c-0.78,1.79 -1.51,3.23 -2.18,4.32c-0.67,1.1 -1.58,2.02 -2.74,2.76c-1.16,0.74 -2.59,1.03 -4.29,0.88c-1.63,-0.15 -3.06,-0.69 -4.31,-1.64c-1.25,-0.94 -2.19,-2.23 -2.83,-3.87c-0.64,-1.63 -0.87,-3.52 -0.68,-5.66z" stroke-linecap="round"/>
</g>
</g>
</g>
<g transform="matrix(1 0 0 1 0 0)" id="a7098cd9-b39b-45e0-b62b-af826cf7dd7e">

</g>
<g transform="matrix(1 0 0 1 0 0)" id="c7cf19c0-d9c7-498d-aba4-5cfa7a585064">

</g>
<g transform="matrix(1 0 0 1 0 0)" id="e1253222-c557-465c-ae67-9ba515590400">

</g>
<g id="Y9Sl3Pui3CClxy_QpAajn">
<g style="">
		<g id="7bfbbc2b-009e-447b-8f6d-5890e64a6140">
<path style="stroke: rgb(136,136,136); stroke-width: 0; stroke-dasharray: none; stroke-linecap: butt; stroke-dashoffset: 0; stroke-linejoin: miter; stroke-miterlimit: 4; fill: rgb(255,215,54); fill-rule: nonzero; opacity: 1;" d="M532.65,763.82c-0.51,1.06 -1.24,1.94 -2.18,2.62c-0.95,0.68 -2.1,1.05 -3.44,1.11c-1.35,0.05 -2.83,-0.31 -4.46,-1.1l-3.32,-1.59l-3.66,7.6l-3.98,-1.92l9.54,-19.81l7.3,3.52c1.54,0.74 2.72,1.63 3.54,2.68c0.82,1.05 1.28,2.16 1.38,3.35c0.08,1.19 -0.15,2.37 -0.72,3.54zM523.95,763.16c1.1,0.53 2.03,0.67 2.8,0.42c0.78,-0.24 1.38,-0.82 1.82,-1.73c0.93,-1.93 0.31,-3.41 -1.85,-4.45l-3.14,-1.52l-2.78,5.76zM548.36,785.37l-2.11,-9.62l-1.98,-0.61l-2.53,8.19l-4.22,-1.31l6.49,-21.01l7.9,2.44c1.62,0.5 2.92,1.22 3.89,2.14c0.96,0.92 1.58,1.96 1.85,3.11c0.27,1.15 0.22,2.33 -0.15,3.54c-0.42,1.38 -1.21,2.5 -2.36,3.37c-1.15,0.87 -2.58,1.26 -4.29,1.19l2.39,10.08zM545.24,771.97l3.53,1.09c1.15,0.36 2.08,0.34 2.82,-0.04c0.73,-0.37 1.24,-1.05 1.55,-2.04c0.3,-0.96 0.25,-1.79 -0.15,-2.49c-0.4,-0.71 -1.17,-1.24 -2.31,-1.6l-3.53,-1.09zM576.07,791.46c-2.04,-0.28 -3.85,-1.02 -5.43,-2.21c-1.57,-1.19 -2.74,-2.7 -3.51,-4.53c-0.77,-1.83 -1,-3.82 -0.71,-5.96c0.29,-2.12 1.05,-3.96 2.28,-5.53c1.23,-1.56 2.76,-2.7 4.59,-3.43c1.84,-0.72 3.78,-0.95 5.83,-0.67c2.06,0.28 3.87,1.02 5.43,2.21c1.56,1.19 2.73,2.7 3.49,4.53c0.76,1.83 0.99,3.81 0.7,5.93c-0.29,2.15 -1.05,4 -2.27,5.55c-1.22,1.57 -2.75,2.71 -4.58,3.43c-1.84,0.73 -3.78,0.95 -5.82,0.68zM576.61,787.55c1.3,0.18 2.5,0.04 3.58,-0.42c1.08,-0.45 1.98,-1.19 2.69,-2.21c0.71,-1.03 1.17,-2.27 1.37,-3.73c0.19,-1.46 0.09,-2.78 -0.33,-3.94c-0.41,-1.17 -1.08,-2.12 -2,-2.84c-0.92,-0.72 -2.03,-1.17 -3.34,-1.34c-1.32,-0.18 -2.52,-0.05 -3.61,0.39c-1.08,0.45 -1.98,1.19 -2.7,2.2c-0.71,1.01 -1.16,2.25 -1.36,3.71c-0.2,1.46 -0.09,2.78 0.32,3.96c0.41,1.18 1.09,2.13 2.01,2.86c0.93,0.73 2.05,1.18 3.37,1.36zM612.21,770.88l0.26,15.44c0.04,2.14 -0.55,3.81 -1.77,5.02c-1.22,1.2 -2.87,1.82 -4.95,1.86c-2.1,0.04 -3.81,-0.55 -5.12,-1.74c-1.32,-1.2 -1.99,-2.88 -2.03,-5.07l4.41,-0.07c0.04,0.94 0.27,1.67 0.72,2.18c0.44,0.52 1.07,0.78 1.89,0.76c0.79,-0.01 1.4,-0.27 1.81,-0.78c0.41,-0.51 0.61,-1.21 0.59,-2.09l-0.26,-15.44zM628.22,772.68l0.87,5.44l7.32,-1.17l0.55,3.45l-7.31,1.18l0.92,5.75l8.25,-1.32l0.56,3.55l-12.59,2.02l-3.49,-21.75l12.59,-2.03l0.57,3.56zM647.91,776.55c-0.67,-2.06 -0.79,-4.05 -0.39,-5.98c0.4,-1.93 1.26,-3.61 2.58,-5.04c1.31,-1.43 2.97,-2.47 4.98,-3.12c2.33,-0.75 4.57,-0.81 6.72,-0.18c2.15,0.63 3.91,1.9 5.29,3.79l-4.82,1.56c-0.81,-0.84 -1.72,-1.38 -2.75,-1.6c-1.04,-0.22 -2.12,-0.14 -3.26,0.22c-1.22,0.4 -2.21,1.03 -2.97,1.91c-0.77,0.88 -1.25,1.92 -1.45,3.13c-0.19,1.21 -0.06,2.52 0.39,3.91c0.44,1.39 1.1,2.52 1.96,3.39c0.87,0.88 1.88,1.45 3.01,1.71c1.13,0.27 2.31,0.2 3.52,-0.19c1.15,-0.37 2.07,-0.94 2.78,-1.73c0.7,-0.8 1.13,-1.77 1.29,-2.92l4.83,-1.56c-0.01,2.37 -0.7,4.42 -2.07,6.17c-1.36,1.76 -3.22,3.02 -5.58,3.78c-2,0.65 -3.95,0.77 -5.85,0.38c-1.91,-0.39 -3.59,-1.25 -5.03,-2.57c-1.46,-1.31 -2.52,-3 -3.18,-5.06zM687.05,748.77l1.61,3.17l-5.21,2.67l8.38,16.41l-3.93,2l-8.38,-16.41l-5.23,2.67l-1.62,-3.17z" stroke-linecap="round"/>
</g>
</g>
</g>
<g transform="matrix(1 0 0 1 0 0)" id="956dc4b5-7ee3-41bd-9d45-1f73c3e9473c">

</g>
<g transform="matrix(1 0 0 1 0 0)" id="8d9b871a-ace3-4d80-90af-dcb962f293dc">

</g>

  </svg>